<svg xmlns="http://www.w3.org/2000/svg" fill-rule="evenodd" stroke-linejoin="round" stroke-miterlimit="2" clip-rule="evenodd" viewBox="0 0 64 64"><rect width="64" height="64" fill="none"/><rect width="24" height="24" x="180" y="580" fill="#1eded0" class="color3fc1c9 svgShape" transform="matrix(.5 0 0 .5 -64 -264)"/><path fill="#009991" d="M170,490L170,500C170,501.104 169.104,502 168,502C166.896,502 166,501.104 166,500L166,488C166,486.895 166.895,486 168,486L180,486C181.104,486 182,486.896 182,488C182,489.104 181.104,490 180,490L170,490Z" class="color364f6b svgShape" transform="translate(-160 -480)"/><path fill="#009991" d="M170,490L180,490C181.104,490 182,489.104 182,488C182,486.896 181.104,486 180,486L168,486C166.895,486 166,486.895 166,488L166,500C166,501.104 166.896,502 168,502C169.104,502 170,501.104 170,500L170,490Z" class="color364f6b svgShape" transform="matrix(-1 0 0 1 224 -480)"/><path fill="#009991" d="M170,490L180,490C181.104,490 182,489.104 182,488C182,486.896 181.104,486 180,486L168,486C166.895,486 166,486.895 166,488L166,500C166,501.104 166.896,502 168,502C169.104,502 170,501.104 170,500L170,490Z" class="color364f6b svgShape" transform="matrix(1 0 0 -1 -160 544)"/><path fill="#009991" d="M170,490L170,500C170,501.104 169.104,502 168,502C166.896,502 166,501.104 166,500L166,488C166,486.895 166.895,486 168,486L180,486C181.104,486 182,486.896 182,488C182,489.104 181.104,490 180,490L170,490Z" class="color364f6b svgShape" transform="rotate(180 112 272)"/><path fill="#009991" d="M202,522C202,520.896 202.896,520 204,520C205.104,520 206,520.896 206,522L206,524C206,525.105 205.105,526 204,526L180,526C178.895,526 178,525.105 178,524L178,500C178,498.895 178.895,498 180,498L204,498C205.105,498 206,498.895 206,500L206,514C206,515.104 205.104,516 204,516C202.896,516 202,515.104 202,514L202,502L182,502L182,522L202,522Z" class="color364f6b svgShape" transform="translate(-160 -480)"/></svg>