
<svg width="200" height="195" viewBox="0 0 200 195" xmlns="http://www.w3.org/2000/svg">
  <defs>
    <linearGradient id="a" x1="-.001%" y1="50%" y2="50%">
      a
      <stop stop-color="#1EDED0" offset="0"/>
      <stop stop-color="#1EDED0" offset=".78"/>
      <stop stop-color="#1EDED0" offset=".78"/>
      <stop stop-color="#1EDED0" offset=".83"/>
      <stop stop-color="#1EDED0" offset=".88"/>
      <stop stop-color="#1EDED0" offset=".93"/>
      <stop stop-color="#1EDED0" offset="1"/>
    </linearGradient>
  </defs>
  <path d="M103.5 194.69a57.225 57.225 0 0 1-16.226-2.377 67.492 67.492 0 0 1-17.579-8.27 68.543 68.543 0 0 1-6.384-3.61 78.48 78.48 0 0 1-16.352-8.535C18.4 161.438 1.261 137.596.06 105.23c-.905-24.352 9.378-50.887 26.78-70.862 7.453-13.176 18.818-23.02 33.572-28.61 17.862-6.768 35.987-7.51 53.12-2.56a63.146 63.146 0 0 1 27.232 5.522 70.68 70.68 0 0 1 29.987 18.03 68.736 68.736 0 0 1 13.566 11.102c9.434 10.1 20.333 28.893 13.591 58.54.63 16.737-2.679 31.938-9.717 44.995a67.743 67.743 0 0 1-3.239 7.987c-6.962 14.396-21.164 30.358-50.025 36.296-11.377 6.642-22.013 9.02-31.428 9.02zm-25.969-7.359a61.762 61.762 0 0 0 10.063 3.97c11.686 3.452 26.937 4.024 44.057-5.032-4.47.756-8.977 1.262-13.503 1.515a72.325 72.325 0 0 1-13.384 2.648 63.62 63.62 0 0 1-27.233-3.1zm-6.245-3.515a63.163 63.163 0 0 0 33.333 5.591 68.75 68.75 0 0 0 8.59-1.403c-4.98.114-10.286-.027-15.917-.42a124.177 124.177 0 0 1-28.031-5.076c.68.446 1.352.886 2.025 1.308zm-5.032-3.409c9.151 3.226 19.547 5.29 31.094 6.126 6.846.516 13.717.592 20.572.226a80.307 80.307 0 0 0 5.906-2.006c-20.572 3.528-42.528 1.132-61.698-7.591a116.924 116.924 0 0 0 4.157 3.245h-.031zm62.68 3.34a88.513 88.513 0 0 1-6.648 2.691 111.48 111.48 0 0 0 12.225-1.767 84.33 84.33 0 0 0 6.919-4.535 104.414 104.414 0 0 1-12.497 3.61zM62.09 175.96c20.635 9.535 44.604 11.63 66.535 6.774 24.987-11.384 47.094-35.591 56.97-64.415a99.965 99.965 0 0 0 4.402-18.044c-.206-1.43-.443-2.862-.71-4.296a92.31 92.31 0 0 1-3.039 13.082c-6.968 22.642-23.849 41.95-47.528 54.447-21.855 11.528-47.912 16.352-71.484 13.258a82.85 82.85 0 0 1-5.144-.805zm82.906 2.818a91.844 91.844 0 0 1-7.283 5.182c26.415-6.289 39.68-21.384 46.29-35.057.333-.691.66-1.396.968-2.1a79.487 79.487 0 0 1-17.572 19.113 91.308 91.308 0 0 1-22.403 12.874v-.013zm45.46-74.843c-.918 5-2.211 9.924-3.869 14.73-9.377 27.39-29.73 50.66-53.157 62.893a98.818 98.818 0 0 0 11.013-3.686c8.938-7.03 18.24-16.868 27.673-30.327 8.177-11.686 14.522-22.956 18.975-33.698-.05-3.257-.257-6.566-.635-9.899v-.012zm-127.53 75.214h.037a93.765 93.765 0 0 1-4.32-3.686l-.68-.345-.818-.19a74.435 74.435 0 0 0 5.78 4.221zm-11.875-5.868a76.606 76.606 0 0 0 7.919 4.176 79.625 79.625 0 0 1-3.837-3.019 86.978 86.978 0 0 1-4.082-1.157zm7.774.962c2.76.63 5.61 1.107 8.54 1.491 44.938 5.918 102.77-18.006 117.87-66.969a89.245 89.245 0 0 0 3.447-15.962 129.753 129.753 0 0 0-30.78-59.61 114.984 114.984 0 0 0-13.283-12.44 107.83 107.83 0 0 0-24.27-7.497c-17.83-.786-36.327 2.264-52.874 9.34-25.126 19.93-43.05 52.83-46.447 83.516 6.107 26.987 20.094 51.874 37.8 68.132zm132.26-57.585c-4.208 9.598-10.107 20.082-18.113 31.497-8.522 12.145-16.931 21.384-25.075 28.258a89.178 89.178 0 0 0 18.868-11.32 77.502 77.502 0 0 0 20.459-24.12 81.253 81.253 0 0 0 3.862-24.314zm-143.62 54.27a82.577 82.577 0 0 0 5.811 1.887l-.956-.861a83.999 83.999 0 0 1-22.76-19.937 60.926 60.926 0 0 0 17.905 18.912zm4.887-.188c1.115.679 2.247 1.341 3.396 1.987-16.082-15.742-28.836-38.572-34.994-63.37a86.303 86.303 0 0 0-.233 4.2c1.975 10.013 5.918 20.824 12.58 32.302 6.1 10.516 12.61 18.654 19.251 24.906v-.025zM24.465 38.96C9.314 58.224.283 83.023 1.107 105.193c1.132 30.516 16.59 53.277 42.503 64.245a60.806 60.806 0 0 1-18.333-23.421c-9.554-14.774-14.585-32.918-14.453-53.572.081-14.12 2.912-26.855 8.283-37.881a77.821 77.821 0 0 1 5.358-15.604zM26.2 145.48a81.175 81.175 0 0 0 22.283 22.76 112.119 112.119 0 0 1-16.308-21.842 108.505 108.505 0 0 1-11.717-28.107 76.579 76.579 0 0 0 1.81 15.239 65.193 65.193 0 0 0 3.932 11.95zm-3.642-6.176c.15.289.308.572.46.855l-.29-.912-.17.057zM18.157 59.31c-4.057 9.861-6.19 20.98-6.29 33.132-.088 16.497 3.1 31.365 9.315 44.17-7.095-21.434-8.604-41.025-4.541-58.396-.08-6.335.422-12.663 1.497-18.906h.019zm174.09 54.654a86.883 86.883 0 0 1-2.359 21.56c4.673-10.572 7.05-22.403 7.05-35.22a114.375 114.375 0 0 1-4.71 13.66h.018zM16.806 83.56c-2.46 14.736-1.139 31.138 4.106 48.667a81.938 81.938 0 0 1-1.547-18.868 83.293 83.293 0 0 1-1.49-18.61c-.51-3.699-.9-7.472-1.07-11.19zm174.29 16.352c.552 3.733.907 7.493 1.062 11.264a109.552 109.552 0 0 0 4.692-15.031 120.807 120.807 0 0 0-2.868-21.516c-4.37-19.66-12.553-35.58-23.956-47.101a81.437 81.437 0 0 0-6.918-3.875c.384.353.774.717 1.157 1.082 21.434 20.314 30.761 46.994 26.83 75.195v-.019zm-172.1 1.61c.113 2.258.32 4.566.628 6.918.07-.868.151-1.736.252-2.61-.308-1.428-.604-2.83-.88-4.308zm-.057-6.774c.373 2.642.822 5.273 1.346 7.893a122.426 122.426 0 0 1 11.553-36.61C39.85 49.68 51.09 35.114 63.877 24.208a102.56 102.56 0 0 0-9.352 5.032c-.885.536-1.757 1.08-2.617 1.628A98.225 98.225 0 0 0 34.99 48.943c-6.968 9.692-15.346 25.453-16.05 45.805zm170.81-2.277c.272 1.258.52 2.497.742 3.717 2.629-26.522-6.685-51.484-26.969-70.686a78.533 78.533 0 0 0-3.83-3.446 100.42 100.42 0 0 0-20.24-6.478 100.385 100.385 0 0 1 5.743 4.239A87.874 87.874 0 0 1 167.473 34c17.176 15.233 24.818 35.579 22.277 58.472zM173.907 30.14C183.819 41.46 191 56.372 195 74.397a126.58 126.58 0 0 1 2.66 17.748c3.862-21.088-.805-39.352-14.119-53.579a65.629 65.629 0 0 0-9.635-8.427zm-25.403-7.547a117.16 117.16 0 0 1 10.176 9.868 132.074 132.074 0 0 1 30.308 56.704c1.472-21.245-6.113-40.107-22.214-54.358a84.93 84.93 0 0 0-18.27-12.233v.019zM17.684 79.007c0 .856.038 1.73.07 2.598.091 2.515.259 5.014.502 7.497 1.887-17.893 9.466-31.855 15.862-40.755a96.772 96.772 0 0 1 10.063-11.855C30.414 47.725 21.495 62.178 17.703 78.989l-.019.018zm2.44-24.069a96.433 96.433 0 0 0-2.39 19.132 81.041 81.041 0 0 1 1.113-3.503C24.527 54.177 35.69 40.21 51.3 30.045a108.869 108.869 0 0 1 28.34-16.98 96.56 96.56 0 0 0-22.245 6.741c-17.1 7.635-29.723 19.673-37.27 35.132zm7.547-19.83a73.124 73.124 0 0 0-6.396 15.333c7.811-13.748 19.862-24.528 35.692-31.597a98.81 98.81 0 0 1 25.786-7.39 72.897 72.897 0 0 1 25.786-7.93C75.47-.742 51.885 12.655 37.69 25.013a100.452 100.452 0 0 0-10.019 10.094zM90.985 1.051a85.02 85.02 0 0 0-30.189 5.66 62.72 62.72 0 0 0-30.1 23.46 94.707 94.707 0 0 1 6.289-5.969C50.419 12.523 72.205-.094 102.268 1.856a79.667 79.667 0 0 0-11.283-.805zm-17.61 15.931a108.135 108.135 0 0 0-14.465 8.554 104.35 104.35 0 0 1 8.082-3.868 94.84 94.84 0 0 1 6.378-4.686h.006zm86.937 4.208c2.185.972 4.3 2.02 6.346 3.144a69.143 69.143 0 0 0-18.239-11.686c4.2 2.503 8.18 5.36 11.893 8.541zM80.74 13.693l-.962.54a96.499 96.499 0 0 0-9.126 5.919 123.55 123.55 0 0 1 42.258-8.063 113.95 113.95 0 0 0-28.34.15c-1.283.47-2.56.955-3.83 1.454zm56.465.396a105.661 105.661 0 0 1 19.66 5.66 77.613 77.613 0 0 0-16.56-10.063 75.157 75.157 0 0 0-6.647-1.679 78.471 78.471 0 0 0-10.616-1.427 92.292 92.292 0 0 1 14.164 7.522v-.013zm-9.534-.327c4.621 1.17 9.161 2.64 13.59 4.402a98.538 98.538 0 0 0-4.496-3.094c-3.002-.553-6.034-.99-9.094-1.308zm-7.113-1.554c4.66.203 9.305.675 13.912 1.416a90.029 90.029 0 0 0-14.66-7.208 95.77 95.77 0 0 0-30.472 4.258 116.123 116.123 0 0 1 31.208 1.535h.012zm-7.183-7.95a67.586 67.586 0 0 0-24.327 5.403 97.695 97.695 0 0 1 27.748-4.34 83.51 83.51 0 0 0-3.37-1.062h-.051zm6.673 1.101c3.85.116 7.688.503 11.484 1.158a61.354 61.354 0 0 0-14.553-2.258c1.032.36 2.055.731 3.07 1.113v-.013z" fill="url(#a)" fill-rule="nonzero"/>
</svg>
