<svg xmlns="http://www.w3.org/2000/svg" xmlns:svgjs="http://svgjs.com/svgjs" xmlns:xlink="http://www.w3.org/1999/xlink" width="288" height="288"><svg xmlns="http://www.w3.org/2000/svg" width="288" height="288" viewBox="0 0 48 48"><path fill="#009991" d="m22.1 33.7-6.7-1-3-6.1c-.2-.3-.5-.6-.9-.6s-.7.2-.9.6l-3 6.1-6.7 1c-.4 0-.7.3-.9.6-.1.4 0 .8.3 1l4.9 4.8L4 46.8c-.1.4.1.8.4 1 .3.2.7.3 1.1.1l6-3.2 6 3.2c.1.1.6.3 1.1-.1.3-.2.5-.6.4-1l-1.2-6.7 4.9-4.8c.3-.3.4-.7.3-1-.2-.3-.5-.6-.9-.6zm-6 5.4c-.2.2-.3.6-.3.9l.9 5.2-4.7-2.5c-.3-.2-.6-.2-.9 0l-4.7 2.5.9-5.2c.1-.3-.1-.7-.3-.9l-3.8-3.7 5.3-.8c.3 0 .6-.3.8-.5l2.3-4.8 2.3 4.8c.1.3.4.5.8.5l5.3.8-3.9 3.7zM33.7 7.6l-6.7-1-3-6.1c-.3-.3-.6-.5-1-.5s-.7.2-.9.6l-3 6.1-6.7 1c-.4 0-.7.3-.8.6-.1.4 0 .8.3 1l4.9 4.8-1.2 6.7c-.1.4.1.8.4 1 .3.2.7.3 1.1.1l6-3.2 6 3.2c.1.1.6.3 1.1-.1.3-.2.5-.6.4-1l-1.2-6.7 4.9-4.8c.3-.3.4-.7.3-1-.3-.3-.6-.6-.9-.7zM27.6 13c-.2.2-.3.6-.3.9l.9 5.2-4.7-2.5c-.3-.2-.6-.2-.9 0l-4.7 2.5.9-5.2c.1-.3-.1-.7-.3-.9l-3.8-3.7 5.3-.8c.3 0 .6-.3.8-.5L23 3.3 25.4 8c.1.3.4.5.8.5l5.3.8-3.9 3.7zM47.1 33.7l-6.7-1-3-6.1c-.2-.3-.5-.6-.9-.6s-.7.2-.9.6l-3 6.1-6.7 1c-.4.1-.7.3-.8.7-.1.4 0 .8.3 1l4.9 4.8-1.3 6.6c-.1.4.1.8.4 1 .3.2.7.3 1.1.1l6-3.2 6 3.2c.1.1.6.3 1.1-.1.3-.2.5-.6.4-1l-1.2-6.7 4.9-4.8c.3-.3.4-.7.3-1-.2-.3-.5-.6-.9-.6zm-6 5.4c-.2.2-.3.6-.3.9l.9 5.2-4.7-2.5c-.3-.2-.6-.2-.9 0l-4.7 2.5.9-5.2c.1-.3-.1-.7-.3-.9l-3.8-3.7 5.3-.8c.3 0 .6-.3.8-.5l2.3-4.8 2.3 4.8c.1.3.4.5.8.5l5.3.8-3.9 3.7z" class="color000 svgShape"/></svg></svg>