<svg xmlns="http://www.w3.org/2000/svg" width="206.493" height="230.903" viewBox="0 0 206.493 230.903"><g transform="translate(6128.496 7094.569)"><path d="M3,0H126.025a3,3,0,0,1,3,3V38.746a3,3,0,0,1-3,3H35a35,35,0,0,1-35-35V3A3,3,0,0,1,3,0Z" transform="translate(-5999.419 -7052.823) rotate(180)" fill="#2a2a2a"/><path d="M99.541,60.232A35.944,35.944,0,0,1,63.6,24.287a4.6,4.6,0,0,1,1.349-3.258,4.586,4.586,0,0,1-2.135.524h-97.2A4.608,4.608,0,0,1-39,16.944V-14.392A4.608,4.608,0,0,1-34.392-19H31.473A35.945,35.945,0,0,1,67.418,16.944,4.6,4.6,0,0,1,66.069,20.2a4.587,4.587,0,0,1,2.136-.524h94.2a4.608,4.608,0,0,1,4.608,4.609V55.624a4.608,4.608,0,0,1-4.608,4.608Z" transform="translate(-6089.496 -7000.233)" fill="#2a2a2a"/><path d="M4.608,0h67.72a4.608,4.608,0,0,1,4.608,4.608V35.945a4.608,4.608,0,0,1-4.608,4.608H35.945A35.945,35.945,0,0,1,0,4.608v0A4.608,4.608,0,0,1,4.608,0Z" transform="translate(-5999.418 -7055.696)" fill="#f9a912"/><path d="M3,0H126.025a3,3,0,0,1,3,3V38.746a3,3,0,0,1-3,3H35a35,35,0,0,1-35-35V3A3,3,0,0,1,3,0Z" transform="translate(-6051.028 -6905.413)" fill="#2a2a2a"/><path d="M4.608,0H75.276a4.608,4.608,0,0,1,4.608,4.608V35.945a4.608,4.608,0,0,1-4.608,4.608H35.945A35.945,35.945,0,0,1,0,4.608v0A4.608,4.608,0,0,1,4.608,0Z" transform="translate(-6048.559 -6903.539) rotate(180)" fill="#11ecc7"/></g></svg>