<svg xmlns="http://www.w3.org/2000/svg" width="1471.202" height="335.981" viewBox="0 0 1471.202 335.981"><g transform="translate(-2498.6 12030.981)"><g transform="translate(960 -1043)"><g transform="translate(7667.097 -3893.412)"><path d="M3,0H126.025a3,3,0,0,1,3,3V38.746a3,3,0,0,1-3,3H35a35,35,0,0,1-35-35V3A3,3,0,0,1,3,0Z" transform="translate(-5999.419 -7052.823) rotate(180)" fill="#fff"/><path d="M99.541,60.232A35.944,35.944,0,0,1,63.6,24.287a4.6,4.6,0,0,1,1.349-3.258,4.586,4.586,0,0,1-2.135.524h-97.2A4.608,4.608,0,0,1-39,16.944V-14.392A4.608,4.608,0,0,1-34.392-19H31.473A35.945,35.945,0,0,1,67.418,16.944,4.6,4.6,0,0,1,66.069,20.2a4.587,4.587,0,0,1,2.136-.524h94.2a4.608,4.608,0,0,1,4.608,4.609V55.624a4.608,4.608,0,0,1-4.608,4.608Z" transform="translate(-6089.496 -7000.233)" fill="#fff"/><path d="M4.608,0h67.72a4.608,4.608,0,0,1,4.608,4.608V35.945a4.608,4.608,0,0,1-4.608,4.608H35.945A35.945,35.945,0,0,1,0,4.608v0A4.608,4.608,0,0,1,4.608,0Z" transform="translate(-5999.418 -7055.696)" fill="#f9a912"/><path d="M3,0H126.025a3,3,0,0,1,3,3V38.746a3,3,0,0,1-3,3H35a35,35,0,0,1-35-35V3A3,3,0,0,1,3,0Z" transform="translate(-6051.028 -6905.413)" fill="#fff"/><path d="M4.608,0H75.276a4.608,4.608,0,0,1,4.608,4.608V35.945a4.608,4.608,0,0,1-4.608,4.608H35.945A35.945,35.945,0,0,1,0,4.608v0A4.608,4.608,0,0,1,4.608,0Z" transform="translate(-6048.559 -6903.539) rotate(180)" fill="#11ecc7"/></g><g transform="translate(6934.639 -1945)"><path d="M406.465,77.542h-73.68q-17.9,0-29.866,3.465T283.712,91.854a42.455,42.455,0,0,0-10.395,18.985q-3.155,11.608-3.156,27.875v42.409a5.547,5.547,0,0,0,5.547,5.547H302.24a5.548,5.548,0,0,0,5.549-5.547V146.852A80.959,80.959,0,0,1,309.1,131.03a21.91,21.91,0,0,1,4.606-10.246,18.411,18.411,0,0,1,8.816-5.425,49.684,49.684,0,0,1,13.946-1.654h69.995q4.738,0,4.736-5.425V82.964Q411.2,77.544,406.465,77.542Z" transform="translate(-4995.636 -9055.059)" fill="#fff"/><path d="M364.773,104.554V64.777q0-6.622,5.788-6.628h26.052q5.782,0,5.788,6.628v39.777h46.047q4.738,0,4.738,5.422v24.712q0,5.427-4.738,5.425H402.4v69.911q0,12.66,4.472,18.531t17.631,5.879H450.03q4.734,0,4.736,5.422v24.711q0,5.427-4.736,5.425H418.188q-15.786,0-26.051-3.317a35.34,35.34,0,0,1-16.444-10.543q-6.185-7.236-8.552-18.689a137.4,137.4,0,0,1-2.367-27.42V140.113h-25q-4.731,0-4.736-5.425V109.977q0-5.42,4.736-5.422Z" transform="translate(-4905.271 -9082.07)" fill="#fff"/><rect width="38.028" height="39.099" rx="1.435" transform="translate(-4955.604 -8917.998)" fill="#fff"/><path d="M274.285,110.839a42.521,42.521,0,0,0-10.392-18.985q-7.243-7.376-19.342-10.847t-29.734-3.465H140.35q-17.9,0-29.868,3.465T91.272,91.854A42.5,42.5,0,0,0,80.88,110.839,100.343,100.343,0,0,0,77.8,133.907c0,.074-.022.144-.022.22v4.712H77.8a2.845,2.845,0,0,0,2.831,2.62h32.091a2.843,2.843,0,0,0,2.831-2.62h.014l.01-.115a62.363,62.363,0,0,1,1.086-8.445,22.806,22.806,0,0,1,4.6-10.246,17,17,0,0,1,8.815-5.425,54.058,54.058,0,0,1,13.946-1.508h67.1a55.36,55.36,0,0,1,14.211,1.508,17.052,17.052,0,0,1,8.815,5.425,22.962,22.962,0,0,1,4.6,10.246,78.914,78.914,0,0,1,1.314,15.669v28.629a80.762,80.762,0,0,1-1.314,15.968,21.837,21.837,0,0,1-4.6,10.1,18.362,18.362,0,0,1-8.815,5.422,50.463,50.463,0,0,1-14.211,1.661h-67.1a49.282,49.282,0,0,1-13.946-1.661,18.306,18.306,0,0,1-8.815-5.422,21.694,21.694,0,0,1-4.6-10.1,70.265,70.265,0,0,1-1.228-11.639v-2.484a2.856,2.856,0,0,0-2.857-2.855h-32a2.856,2.856,0,0,0-2.857,2.855v5.688q0,16.271,3.159,27.875a42.412,42.412,0,0,0,10.392,18.983q7.24,7.391,19.21,10.7t29.868,3.317h74.467q17.624,0,29.734-3.317t19.342-10.7a42.435,42.435,0,0,0,10.392-18.983q3.159-11.6,3.159-27.875v-43.4Q277.444,122.444,274.285,110.839Z" transform="translate(-5033.324 -9055.059)" fill="#fff"/><rect width="38.027" height="38.027" rx="3.804" transform="translate(-4725.475 -8850.105)" fill="#f9a912"/><path d="M593.138,103.912q-2.111-9.5-7.239-15.372A28.572,28.572,0,0,0,571.951,80.1q-8.815-2.559-22.235-2.563h-77.1q-17.9,0-29.866,3.465T423.543,91.854a42.429,42.429,0,0,0-10.392,18.985q-3.159,11.608-3.159,27.875v8.224H383.872a5.546,5.546,0,0,0-5.547,5.547v15.551a5.546,5.546,0,0,0,5.547,5.547h26.121v8.526q0,16.271,3.159,27.875a42.344,42.344,0,0,0,10.392,18.983q7.233,7.391,19.208,10.7t29.866,3.317H586.031q4.738,0,4.736-5.425V212.243q0-5.427-4.736-5.425H476.3q-17.107,0-23.024-6.329T447.358,180v-7.234H580.242q7.627,0,11.314-3.764t3.683-13.41V126.963A108.587,108.587,0,0,0,593.138,103.912ZM558.4,140.825q0,5.129-4.472,5.123H447.358v-8.136q0-14.461,5.92-20.641t23.024-6.178h66.046q9.21,0,12.632,3.917t3.419,13.261Z" transform="translate(-4851.452 -9055.059)" fill="#fff"/><path d="M3530.6,3856.3v-38.73H3360.154a22.629,22.629,0,0,0-22.63,22.628v187.044h38.732v-85.325h124.058V3902.9H3376.256V3856.3Z" transform="translate(-8475.57 -12839.326)" fill="#fff"/><g transform="translate(-4242.399 -8986.941)"><path d="M3642.4,3891.144q17.769,0,29.849,3.662t19.5,11.468q7.426,7.806,10.48,20.064t3.049,29.46V4059q0,7.007-5.833,7.008h-26q-5.84,0-5.838-7.008V3966.63a112.064,112.064,0,0,0-1.061-16.722,24.513,24.513,0,0,0-3.979-10.829,16.142,16.142,0,0,0-8.222-5.735,46.272,46.272,0,0,0-14.067-1.75h-46.69V4059q0,7.007-6.1,7.008h-26q-5.84,0-5.837-7.008V3931.6h-45.1a47.776,47.776,0,0,0-14.06,1.75,18.445,18.445,0,0,0-8.891,5.735,23.644,23.644,0,0,0-4.64,10.829,89.412,89.412,0,0,0-1.328,16.722V4059q0,7.007-5.837,7.008h-26q-6.105,0-6.1-7.008V3955.8q0-17.2,3.182-29.46t10.481-20.064q7.295-7.8,19.366-11.468t30.116-3.662Z" transform="translate(-3443.686 -3891.144)" fill="#fff"/></g><rect width="38.027" height="38.027" rx="3.804" transform="translate(-3962.864 -8850.106)" fill="#11ecc7"/></g></g><text transform="translate(3215 -11714)" fill="#fff" font-size="77" font-family="Orbitron" font-weight="700"><tspan x="0" y="0">TECHNOLOGIES</tspan></text></g></svg>