<svg xmlns="http://www.w3.org/2000/svg" viewBox="0 0 128 128"><g fill="#009991" class="color000000 svgShape" data-name="Layer 5"><path d="M60.708 73.262H56.217l-1.785-4.645H46.259l-1.687 4.645h-4.38l7.964-20.447H52.52zm-7.6-8.089l-2.817-7.587-2.762 7.587zM62.9 73.262V52.815h6.625a24.059 24.059 0 0 1 4.909.307 5.365 5.365 0 0 1 2.943 2 6.35 6.35 0 0 1 1.185 3.982 6.677 6.677 0 0 1-.683 3.166 5.607 5.607 0 0 1-1.736 2.016A5.981 5.981 0 0 1 74 65.256a23.571 23.571 0 0 1-4.282.293H67.026v7.713zm4.129-16.988v5.8h2.259a10.679 10.679 0 0 0 3.264-.321 2.711 2.711 0 0 0 1.29-1 2.748 2.748 0 0 0 .468-1.59 2.644 2.644 0 0 0-.655-1.841 2.857 2.857 0 0 0-1.66-.906 19.794 19.794 0 0 0-2.971-.14zM81.823 73.262V52.815h4.129V73.262z" class="color000000 svgShape"/><path d="M63.992,29.455a34.336,34.336,0,1,0,31.98,21.838A34.175,34.175,0,0,0,63.992,29.455ZM92.7,76.358a31.336,31.336,0,1,1,.48-23.974A31.123,31.123,0,0,1,92.7,76.358Z" class="color000000 svgShape"/><path d="M109.592,66.68A45.844,45.844,0,0,0,109.577,61l8.281-7.16a1.5,1.5,0,0,0,.4-1.716l-7.575-18.019a1.487,1.487,0,0,0-1.445-.918l-11.1.465a45.211,45.211,0,0,0-4.029-4L94.9,18.736a1.5,1.5,0,0,0-.93-1.5l-18.1-7.386a1.5,1.5,0,0,0-1.671.374L66.68,18.409a45.709,45.709,0,0,0-5.673.016l-7.16-8.286a1.5,1.5,0,0,0-1.716-.4L34.11,17.315a1.5,1.5,0,0,0-.918,1.446l.466,11.1a45.41,45.41,0,0,0-4,4.03L18.736,33.1a1.534,1.534,0,0,0-1.5.929l-7.385,18.1a1.5,1.5,0,0,0,.373,1.671l8.184,7.525a45.646,45.646,0,0,0,.014,5.674l-8.283,7.16a1.5,1.5,0,0,0-.4,1.716L17.316,93.89a1.507,1.507,0,0,0,1.445.917l11.1-.464a45.391,45.391,0,0,0,4.03,4L33.1,109.263a1.5,1.5,0,0,0,.93,1.5l18.1,7.385a1.5,1.5,0,0,0,1.67-.373l7.526-8.182a45.38,45.38,0,0,0,5.671-.017l7.162,8.287a1.5,1.5,0,0,0,1.717.4l18.018-7.579a1.5,1.5,0,0,0,.917-1.445l-.464-11.1a45.742,45.742,0,0,0,4-4.031l10.924.8a1.5,1.5,0,0,0,1.5-.93l7.384-18.1a1.5,1.5,0,0,0-.373-1.67Zm-1.2,25.153-10.591-.771a1.491,1.491,0,0,0-1.254.527,42.681,42.681,0,0,1-4.715,4.759,1.5,1.5,0,0,0-.52,1.2l.45,10.776-16.054,6.752-6.943-8.033a1.5,1.5,0,0,0-1.135-.519c-.041,0-.083,0-.125.005a42.383,42.383,0,0,1-6.691.023,1.482,1.482,0,0,0-1.217.48l-7.308,7.944-16.125-6.58.771-10.59a1.5,1.5,0,0,0-.527-1.254,42.309,42.309,0,0,1-4.757-4.713,1.5,1.5,0,0,0-1.2-.52l-10.777.451L12.928,75.71l8.029-6.94a1.5,1.5,0,0,0,.514-1.257,42.59,42.59,0,0,1-.019-6.7,1.5,1.5,0,0,0-.48-1.217l-7.946-7.307,6.58-16.123,10.592.77a1.514,1.514,0,0,0,1.253-.527,42.667,42.667,0,0,1,4.714-4.757,1.5,1.5,0,0,0,.521-1.2l-.452-10.779,16.056-6.75,6.941,8.032a1.5,1.5,0,0,0,1.258.514,42.988,42.988,0,0,1,6.7-.022,1.5,1.5,0,0,0,1.217-.48l7.307-7.945L91.833,19.6,91.063,30.2a1.5,1.5,0,0,0,.527,1.254,42.161,42.161,0,0,1,4.754,4.713,1.506,1.506,0,0,0,1.2.522l10.777-.451,6.749,16.055-8.028,6.94a1.5,1.5,0,0,0-.514,1.258,42.6,42.6,0,0,1,.02,6.7,1.5,1.5,0,0,0,.481,1.217l7.944,7.306Z" class="color000000 svgShape"/></g></svg>