<svg xmlns="http://www.w3.org/2000/svg" viewBox="0 0 16 16"><path fill="#009991" d="m6.75.5-.21 1.857a5.833 5.833 0 0 0-1.496.622L3.581 1.814 1.813 3.58 2.98 5.044a5.833 5.833 0 0 0-.62 1.496L.5 6.75v2.5l1.857.21a5.833 5.833 0 0 0 .622 1.496l-1.165 1.463 1.767 1.768 1.463-1.166a5.833 5.833 0 0 0 1.496.62l.21 1.86h2.5l.21-1.858a5.833 5.833 0 0 0 1.496-.622l1.463 1.166 1.768-1.768-1.166-1.463a5.833 5.833 0 0 0 .62-1.496l1.859-.21v-2.5l-1.857-.21a5.833 5.833 0 0 0-.622-1.496l1.165-1.463-1.767-1.767-1.463 1.165a5.833 5.833 0 0 0-1.496-.62L9.25.5h-2.5z" class="colorc2e4f8 svgShape"/><path fill="#fff" d="M11.5 8A3.5 3.5 0 0 1 8 11.5 3.5 3.5 0 0 1 4.5 8 3.5 3.5 0 0 1 8 4.5 3.5 3.5 0 0 1 11.5 8z" class="colorffffff svgShape"/><path style="line-height:normal;text-indent:0;text-align:start;text-decoration-line:none;text-decoration-style:solid;text-decoration-color:#000;text-transform:none;block-progression:tb;isolation:auto;mix-blend-mode:normal" fill="#1eded0" d="M6.75 1036.361a.5.5 0 0 0-.496.446l-.178 1.57a6.318 6.318 0 0 0-.947.393l-1.236-.985a.5.5 0 0 0-.666.037l-1.768 1.768a.5.5 0 0 0-.037.664l.986 1.238a6.32 6.32 0 0 0-.392.947l-1.573.176a.5.5 0 0 0-.443.498v2.498a.5.5 0 0 0 .443.498l1.57.176c.106.327.238.642.395.947l-.986 1.237a.5.5 0 0 0 .037.666l1.768 1.767a.5.5 0 0 0 .666.037l1.236-.984c.305.157.62.287.947.393l.178 1.57a.5.5 0 0 0 .496.443h2.5a.5.5 0 0 0 .496-.443l.178-1.57c.326-.106.642-.236.947-.393l1.236.985a.5.5 0 0 0 .666-.037l1.768-1.768a.5.5 0 0 0 .037-.666l-.986-1.236c.156-.305.287-.621.392-.948l1.573-.175a.5.5 0 0 0 .443-.499v-2.498a.5.5 0 0 0-.443-.498l-1.57-.176a6.319 6.319 0 0 0-.395-.947l.986-1.238a.5.5 0 0 0-.037-.664l-1.77-1.768a.5.5 0 0 0-.664-.037l-1.236.985a6.309 6.309 0 0 0-.947-.393l-.178-1.57a.5.5 0 0 0-.496-.446h-2.5zm.445 1h1.608l.16 1.416a.5.5 0 0 0 .371.428c.48.125.94.315 1.367.566a.5.5 0 0 0 .567-.039l1.113-.886 1.137 1.135-.887 1.115a.5.5 0 0 0-.041.564c.252.427.443.89.568 1.37a.5.5 0 0 0 .428.368l1.414.16v1.608l-1.414.16a.5.5 0 0 0-.43.371c-.124.48-.315.94-.566 1.368a.5.5 0 0 0 .04.564l.888 1.115-1.137 1.135-1.113-.887a.5.5 0 0 0-.567-.039 5.33 5.33 0 0 1-1.367.569.5.5 0 0 0-.371.427l-.16 1.412H7.197l-.16-1.414a.5.5 0 0 0-.371-.427 5.328 5.328 0 0 1-1.367-.567.5.5 0 0 0-.567.04l-1.113.886-1.137-1.135.887-1.115a.5.5 0 0 0 .041-.564 5.332 5.332 0 0 1-.568-1.368.5.5 0 0 0-.428-.37L1 1045.165v-1.607l1.414-.16a.5.5 0 0 0 .428-.372c.124-.48.317-.94.568-1.367a.5.5 0 0 0-.04-.564l-.888-1.116 1.137-1.134 1.113.886a.5.5 0 0 0 .567.04 5.33 5.33 0 0 1 1.367-.569.5.5 0 0 0 .371-.428l.158-1.414z" class="color249fe6 svgShape" color="#000" font-family="sans-serif" font-weight="400" overflow="visible" transform="translate(0 -1036.362)"/><path style="line-height:normal;text-indent:0;text-align:start;text-decoration-line:none;text-decoration-style:solid;text-decoration-color:#000;text-transform:none;block-progression:tb;isolation:auto;mix-blend-mode:normal" fill="#1eded0" d="M8 1040.361c-2.203 0-4 1.797-4 4 0 2.203 1.797 4 4 4 2.203 0 4-1.797 4-4 0-2.203-1.797-4-4-4zm0 1c1.663 0 3 1.338 3 3 0 1.663-1.337 3-3 3s-3-1.337-3-3c0-1.662 1.337-3 3-3z" class="color249fe6 svgShape" color="#000" font-family="sans-serif" font-weight="400" overflow="visible" transform="translate(0 -1036.362)"/></svg>