<svg xmlns="http://www.w3.org/2000/svg" viewBox="0 0 48 48"><path fill="#009991" d="M14.4,45.8a1,1,0,0,0,.6.2,1,1,0,0,0,1-1V40H35a1,1,0,0,0,0-2H15a1,1,0,0,0-1,1v4L4.667,36,14,29v4a1,1,0,0,0,1,1H43a1,1,0,0,0,1-1V19a1,1,0,0,0-2,0V32H16V27a1,1,0,0,0-1.6-.8l-12,9a1,1,0,0,0,0,1.6Z" class="color000000 svgShape"/><path fill="#009991" d="M27,21a1,1,0,0,0,0-2H25V18a1,1,0,0,0-2,0v1H21a1,1,0,0,0-1,1v4a1,1,0,0,0,1,1h5v2H21a1,1,0,0,0,0,2h2v1a1,1,0,0,0,2,0V29h2a1,1,0,0,0,1-1V24a1,1,0,0,0-1-1H22V21Z" class="color000000 svgShape"/><path fill="#009991" d="M32.553,21.9A1,1,0,0,0,33.6,21.8l12-9a1,1,0,0,0,0-1.6l-12-9A1,1,0,0,0,32,3V8H13a1,1,0,0,0,0,2H33a1,1,0,0,0,1-1V5l9.333,7L34,19V15a1,1,0,0,0-1-1H5a1,1,0,0,0-1,1V29a1,1,0,0,0,2,0V16H32v5A1,1,0,0,0,32.553,21.9Z" class="color000000 svgShape"/></svg>