<svg xmlns="http://www.w3.org/2000/svg" viewBox="0 0 128 128"><path fill="#1eded0" d="M118.8 43.3c-3.2.3-8.2.8-15.2 1.6-3.7.4-7.8.8-11.9 1.2l-2.1-2.4c-4-4.1-9-7.4-14.6-9.6-5.6-2.2-11.9-3.5-18.3-3.2-6.4.3-13 1.8-19.2 4.6C25.1 41.2 14.6 52.6 9.9 67c-2.4 7.1-3.3 15-2.6 22.8 0 2 .5 3.9.8 5.9.3 2 .8 4 1.4 5.9 1.2 3.9 2.7 7.7 4.7 11.3l-2 1.4c-3.2-4.6-5.8-9.6-7.7-15.1-11.8-33.3 5.6-69.9 38.9-81.8 28.7-10.2 59.7 1.3 75.4 25.9z" class="color2d3e50 svgShape"/><path fill="#009991" d="M45.7 74.6c-.8 8.5 4.4 16.2 12.7 18.6 5.2 1.4 10.2.5 15.5-2.9 8.2-5.3 48.9-29.8 51.7-31.5 1.3-.8 1.9-2.4 1.4-3.8-.4-1.1-1.3-2-2.5-2.2-.3-.1-.6-.1-.9-.1-2.7.2-56.9 6-61.9 6.4-8.6.7-15.1 7-16 15.5z" class="color1d75b9 svgShape"/></svg>