<svg xmlns="http://www.w3.org/2000/svg" data-name="Layer 22" viewBox="0 0 32 32"><defs><linearGradient id="a" x1="5.57" x2="26.43" y1="2.43" y2="23.291" gradientUnits="userSpaceOnUse"><stop class="stopColorfdc830 svgShape" offset="0" stop-color="#1eded0"/><stop class="stopColorf37335 svgShape" offset="1" stop-color="#009991"/></linearGradient></defs><path fill="url(#a)" d="M15,19a1,1,0,0,0,1,1,2.993,2.993,0,0,1,1,5.816V27H15V25.816A3,3,0,0,1,13,23h2a1,1,0,1,0,1-1,2.993,2.993,0,0,1-1-5.816V15h2v1.184A3,3,0,0,1,19,19H17A1,1,0,0,0,15,19Zm8.707-7.293L21.513,13.9a9,9,0,1,1-11.025,0L8.293,11.707A1,1,0,0,1,8,11V4H6V2H26V4H24v7A1,1,0,0,1,23.707,11.707ZM18,12.232V4H14v8.232A8.746,8.746,0,0,1,18,12.232Zm-8-1.646,2,2V4H10v6.586ZM16,14a7,7,0,1,0,7,7A7.008,7.008,0,0,0,16,14Zm6-3.414V4H20v8.586Z"/></svg>