<svg xmlns="http://www.w3.org/2000/svg" fill="none" viewBox="0 0 417 417"><path fill="#009991" d="M208.906 0.660156C94.0303 0.660156 0.90625 93.7852 0.90625 208.66C0.90625 323.535 94.0303 416.66 208.906 416.66C323.781 416.66 416.906 323.535 416.906 208.66C416.906 93.7852 323.781 0.660156 208.906 0.660156ZM187.357 385.659C147.893 380.933 111.379 363.267 82.8383 334.727C49.1643 301.053 30.6202 256.282 30.6202 208.66C30.6202 165.79 45.6562 125.236 73.2213 93.0012C73.9313 101.518 75.6842 110.649 75.2353 117.176C73.5953 140.971 71.2472 155.863 85.1752 175.938C90.6012 183.757 91.9343 194.966 94.5753 204.016C97.1583 212.87 107.477 217.514 114.594 222.969C128.953 233.978 142.69 246.774 157.916 256.463C167.965 262.858 174.242 266.039 171.299 278.302C168.932 288.164 168.271 294.239 163.169 303.025C161.612 305.706 169.046 322.943 171.52 325.417C179.018 332.914 186.458 339.792 194.631 346.542C207.302 357.011 193.4 370.614 187.357 385.659ZM334.973 334.727C309.34 360.36 277.274 377.213 242.417 383.808C247.357 371.592 256.153 360.738 264.312 354.446C271.409 348.97 280.298 338.437 284.005 330.094C287.709 321.762 292.616 314.539 297.582 306.877C304.647 295.978 280.163 279.541 272.229 276.096C254.375 268.345 240.935 257.886 225.068 246.721C213.763 238.767 190.811 250.875 178.048 245.304C160.567 237.671 146.165 224.408 130.97 212.965C115.29 201.156 116.048 187.389 116.048 169.968C128.33 170.421 145.802 166.569 153.956 176.446C156.529 179.563 165.376 193.488 171.298 188.54C176.136 184.497 167.713 168.291 166.086 164.481C161.081 152.766 177.49 148.197 185.889 140.253C196.849 129.889 220.359 113.635 218.501 106.206C216.643 98.7772 194.977 77.7292 182.252 81.0132C180.345 81.5051 163.555 99.1102 160.311 101.872C160.397 96.1262 160.483 90.3812 160.571 84.6352C160.626 81.0072 153.803 77.2831 154.12 74.9432C154.92 69.0292 171.382 58.2962 175.477 53.5862C172.608 51.7932 162.818 43.3842 159.855 44.6182C152.681 47.6082 144.579 49.6682 137.405 52.6572C137.405 50.1692 137.103 47.8322 136.743 45.5242C151.19 39.1331 166.43 34.7097 182.053 32.3722L196.137 38.0322L206.081 49.8332L216.005 60.0662L224.68 62.8612L238.459 49.8662L234.906 40.5892V32.2502C262.156 36.2082 287.89 46.3742 310.428 62.0502C306.396 62.4112 301.965 63.0042 296.966 63.6402C294.901 62.4202 292.252 61.8662 290.001 61.0172C296.532 75.0592 303.344 88.9072 310.265 102.763C317.658 117.564 334.058 133.44 336.938 149.064C340.332 167.48 337.977 184.208 339.834 205.875C341.622 226.74 363.358 250.447 363.358 250.447C363.358 250.447 373.395 253.866 381.742 252.675C373.961 283.458 358.009 311.689 334.973 334.727Z" class="color000000 svgShape"/></svg>