<svg width="460" height="180" xmlns="http://www.w3.org/2000/svg" stroke-miterlimit="2" stroke-linejoin="round" fill-rule="evenodd" clip-rule="evenodd">

 <g>
  <title>Layer 1</title>
  <path id="svg_2" fill="#008576" d="m129.01337,180.34737c-0.0169,-54.9818 -0.0169,-109.96704 0,-164.95574c17.7722,-0.01725 35.54142,-0.01725 53.30753,0c0.0169,54.98295 0.0169,109.96819 0,164.95574c-17.7722,0.01759 -35.54142,0.01759 -53.30753,0z"/>
  <path id="svg_4" fill="#00a693" d="m202.37648,180.30597c-0.08429,-39.68489 -0.08429,-79.36679 0,-119.04673c17.73851,-0.08394 35.48013,-0.08394 53.22474,0c0.08279,39.68454 0.08279,79.36644 0,119.04673c-17.73932,0.08279 -35.48082,0.08279 -53.22474,0z"/>
  <path id="svg_5" fill="#00bba3" d="m275.75568,180.25653c-0.19203,-17.70861 -0.19203,-35.41412 0,-53.11664c17.69712,-0.18399 35.40228,-0.18629 53.11664,-0.00805c0.17479,17.70861 0.17134,35.41378 -0.0092,53.11549c-17.69597,0.18399 -35.39768,0.18709 -53.10744,0.0092z"/>
 </g>
</svg>

