<svg xmlns="http://www.w3.org/2000/svg" viewBox="0 0 48 48"><path d="M.5 39.69h47V8.31H.5v31.38zm2-29.38h43v27.38h-43V10.31z"/><path d="M35.72 23.57c2.39 0 4.33-1.94 4.33-4.33s-1.94-4.33-4.33-4.33c-2.38 0-4.33 1.94-4.33 4.33s1.94 4.33 4.33 4.33zm0-6.65c1.28 0 2.33 1.04 2.33 2.33s-1.04 2.33-2.33 2.33-2.33-1.04-2.33-2.33 1.05-2.33 2.33-2.33zm0 7.26c-4.34 0-7.96 3.53-8.06 7.88l-.02 1.03 16.17-.06-.03-1.03c-.14-4.39-3.67-7.82-8.06-7.82zm-5.95 6.9c.55-2.78 3.03-4.9 5.95-4.9 2.95 0 5.38 2.06 5.94 4.85l-11.89.05zM5.22 17.83h20.33v2H5.22zM5.22 24.46h20.33v2H5.22zM5.22 31.08h20.33v2H5.22z"/></svg>