<svg xmlns="http://www.w3.org/2000/svg" viewBox="0 0 24 24"><path d="M18.84961,1.25H16.15039C13.48926,1.25,12.25,2.48926,12.25,5.15039V8.84961c0,2.66113,1.23926,3.90039,3.90039,3.90039h2.69922c2.66113,0,3.90039-1.23926,3.90039-3.90039V5.15039C22.75,2.48926,21.51074,1.25,18.84961,1.25ZM21.25,8.84961c0,1.83984-.56055,2.40039-2.40039,2.40039H16.15039c-1.83984,0-2.40039-.56055-2.40039-2.40039V5.15039c0-1.83984.56055-2.40039,2.40039-2.40039h2.69922c1.83984,0,2.40039.56055,2.40039,2.40039ZM7.84961,11.25H5.15039C2.48926,11.25,1.25,12.48926,1.25,15.15039v3.69922C1.25,21.51074,2.48926,22.75,5.15039,22.75H7.84961c2.66113,0,3.90039-1.23926,3.90039-3.90039V15.15039C11.75,12.48926,10.51074,11.25,7.84961,11.25ZM10.25,18.84961c0,1.83984-.56055,2.40039-2.40039,2.40039H5.15039C3.31055,21.25,2.75,20.68945,2.75,18.84961V15.15039c0-1.83984.56055-2.40039,2.40039-2.40039H7.84961c1.83984,0,2.40039.56055,2.40039,2.40039ZM22.75,15A7.75868,7.75868,0,0,1,15,22.75a.75074.75074,0,0,1-.64355-1.13574l1.0498-1.75a.75031.75031,0,0,1,1.28711.77148l-.27051.45117A6.26149,6.26149,0,0,0,21.25,15a.75.75,0,0,1,1.5,0ZM1.25,9A7.75868,7.75868,0,0,1,9,1.25a.75074.75074,0,0,1,.64355,1.13574l-1.0498,1.75a.75031.75031,0,0,1-1.28711-.77148l.27051-.45117A6.26149,6.26149,0,0,0,2.75,9a.75.75,0,0,1-1.5,0Z" data-name="1"/></svg>