<svg xmlns="http://www.w3.org/2000/svg" viewBox="0 0 48 48"><path d="M23,10.933H11.433a.5.5,0,0,0-.5.5v8.038a.5.5,0,0,0,.5.5H23a.5.5,0,0,0,.5-.5V11.433A.5.5,0,0,0,23,10.933Zm-.5,8.038H11.933V11.933H22.5Zm.5,1.962H11.433a.5.5,0,0,0-.5.5V36.471a.5.5,0,0,0,.5.5H23a.5.5,0,0,0,.5-.5V21.433A.5.5,0,0,0,23,20.933Zm-.5,15.038H11.933V21.933H22.5Zm14.067-11H25a.5.5,0,0,0-.5.5v11a.5.5,0,0,0,.5.5H36.567a.5.5,0,0,0,.5-.5v-11A.5.5,0,0,0,36.567,24.971Zm-.5,11H25.5v-10H36.067Zm-.325-22.09c0-.005-.01-.007-.013-.012a6.283,6.283,0,1,0-1.885,9.346l.009,0,.013-.011a6.26,6.26,0,0,0,1.885-9.3C35.747,13.894,35.746,13.887,35.742,13.881Zm-1.124.239-3.335,2.591V12.5A5.247,5.247,0,0,1,34.618,14.12ZM25.5,17.732A5.272,5.272,0,0,1,30.283,12.5v5.232c0,.008.006.014.006.021a.491.491,0,0,0,.058.224l2.567,4.582a5.234,5.234,0,0,1-2.131.457A5.289,5.289,0,0,1,25.5,17.732Zm8.286,4.339L31.43,17.864l3.8-2.955a5.241,5.241,0,0,1-1.447,7.162Zm-5.031,5.4a.5.5,0,0,1,.5-.5h5.312a.5.5,0,0,1,0,1H29.255A.5.5,0,0,1,28.755,27.471Zm6.312,2a.5.5,0,0,1-.5.5H31.255a.5.5,0,0,1,0-1h3.312A.5.5,0,0,1,35.067,29.471Zm-20.63-6a.5.5,0,0,1,.5-.5h4.241a.5.5,0,0,1,0,1H14.937A.5.5,0,0,1,14.437,23.471Zm-1.467.189a.585.585,0,0,1-.04-.19.509.509,0,0,1,.15-.35.507.507,0,0,1,.71,0,.507.507,0,0,1,0,.7.386.386,0,0,1-.17.11.406.406,0,0,1-.19.04.469.469,0,0,1-.35-.15A.457.457,0,0,1,12.97,23.66Zm1.467,1.811a.5.5,0,0,1,.5-.5h4.241a.5.5,0,0,1,0,1H14.937A.5.5,0,0,1,14.437,25.471Zm-1.357.359a.554.554,0,0,1-.15-.36.585.585,0,0,1,.04-.19.457.457,0,0,1,.11-.16.5.5,0,0,1,.54-.11.386.386,0,0,1,.17.11.5.5,0,0,1,.14.35.48.48,0,0,1-.5.5A.5.5,0,0,1,13.08,25.83Zm1.357,1.641a.5.5,0,0,1,.5-.5h4.241a.5.5,0,0,1,0,1H14.937A.5.5,0,0,1,14.437,27.471Zm-1.467.189a.585.585,0,0,1-.04-.19.505.505,0,0,1,.86-.35.5.5,0,0,1,.14.35.543.543,0,0,1-.14.36.478.478,0,0,1-.17.1.406.406,0,0,1-.19.04.5.5,0,0,1-.35-.14A.619.619,0,0,1,12.97,27.66Zm-.037-14.227a.5.5,0,0,1,.5-.5H19.8a.5.5,0,1,1,0,1h-6.37A.5.5,0,0,1,12.933,13.433Zm0,2a.5.5,0,0,1,.5-.5H15.8a.5.5,0,0,1,0,1h-2.37A.5.5,0,0,1,12.933,15.433ZM18.273,32.5l2.334-2.96a.5.5,0,0,1,.786.619l-2.685,3.4a.5.5,0,0,1-.749.042L16.169,31.8l-2.338,3.06a.5.5,0,1,1-.795-.608l2.688-3.516a.5.5,0,0,1,.365-.2.522.522,0,0,1,.388.148ZM37.534,7.966H10.466a2.5,2.5,0,0,0-2.5,2.5V37.534a2.5,2.5,0,0,0,2.5,2.5H37.534a2.5,2.5,0,0,0,2.5-2.5V10.466A2.5,2.5,0,0,0,37.534,7.966Zm1.5,29.568a1.5,1.5,0,0,1-1.5,1.5H10.466a1.5,1.5,0,0,1-1.5-1.5V10.466a1.5,1.5,0,0,1,1.5-1.5H37.534a1.5,1.5,0,0,1,1.5,1.5Z"/></svg>