<?xml version="1.0" encoding="UTF-8"?><svg xmlns="http://www.w3.org/2000/svg" xmlns:xlink="http://www.w3.org/1999/xlink" version="1.1" id="Layer_1" x="0px" y="0px" viewBox="0 0 100 100" xml:space="preserve"><style type="text/css">.st0{fill:#3BC3FF;} .st1{fill:#FFB600;} .st2{fill:none;stroke:#000000;stroke-width:2;stroke-linecap:round;stroke-linejoin:round;stroke-miterlimit:10;}</style><path class="st0" d="M44.7 48.5c5.4.2 9.8-4.2 9.8-9.5H45v-9.5c-5.3 0-9.7 4.4-9.5 9.8.1 4.9 4.3 9.1 9.2 9.2z" fill="#3BC3FF"/><path class="st1" d="M47.3 28v8.9h8.9c0-4.8-4.1-8.9-8.9-8.9z" fill="#FFB600"/><path class="st2" fill="none" stroke="#000" stroke-linecap="round" stroke-linejoin="round" stroke-miterlimit="10" stroke-width="2" d="M35 56h8.1"/><path class="st2" fill="none" stroke="#000" stroke-linecap="round" stroke-linejoin="round" stroke-miterlimit="10" stroke-width="2" d="M35 60h21.9"/><path class="st2" fill="none" stroke="#000" stroke-linecap="round" stroke-linejoin="round" stroke-miterlimit="10" stroke-width="2" d="M35 64h31.1"/><path class="st2" fill="none" stroke="#000" stroke-linecap="round" stroke-linejoin="round" stroke-miterlimit="10" stroke-width="2" d="M35 68h21.9"/><path class="st2" fill="none" stroke="#000" stroke-linecap="round" stroke-linejoin="round" stroke-miterlimit="10" stroke-width="2" d="M35 72h12.7"/><path class="st2" d="M34.6 19c-4.7 0-8.6 3.8-8.6 8.6V81h49V19H34.6z" fill="none" stroke="#000" stroke-linecap="round" stroke-linejoin="round" stroke-miterlimit="10" stroke-width="2"/><metadata><rdf:RDF xmlns:rdf="http://www.w3.org/1999/02/22-rdf-syntax-ns#" xmlns:rdfs="http://www.w3.org/2000/01/rdf-schema#" xmlns:dc="http://purl.org/dc/elements/1.1/"><rdf:Description about="https://iconscout.com/legal#licenses" dc:title="analytic,report" dc:description="analytic,report" dc:publisher="Iconscout" dc:date="2017-09-14" dc:format="image/svg+xml" dc:language="en"><dc:creator><rdf:Bag><rdf:li>Costa Galaktionov</rdf:li></rdf:Bag></dc:creator></rdf:Description></rdf:RDF></metadata></svg>