<svg xmlns="http://www.w3.org/2000/svg" viewBox="0 0 25 25"><g data-name="Performance 01"><rect width="3" height="4" x="4.5" y="17.5" fill="#fff"/><rect width="3" height="12" x="17.5" y="9.5" fill="#fff"/><rect width="3" height="8" x="11" y="13.5" fill="#74e8d5"/><path fill="#172f35" d="M14 22H11a.5.5 0 0 1-.5-.5v-8A.5.5 0 0 1 11 13h3a.5.5 0 0 1 .5.5v8A.5.5 0 0 1 14 22zm-2.5-1h2V14h-2zM20.5 22h-3a.5.5 0 0 1-.5-.5V9.5a.5.5 0 0 1 .5-.5h3a.5.5 0 0 1 .5.5v12A.5.5 0 0 1 20.5 22zM18 21h2V10H18zM7.5 22h-3a.5.5 0 0 1-.5-.5v-4a.5.5 0 0 1 .5-.5h3a.5.5 0 0 1 .5.5v4A.5.5 0 0 1 7.5 22zM5 21H7V18H5zM6.5 10A.5.5 0 0 1 6 9.5.5.5 0 0 1 6.5 9a12.54 12.54 0 0 0 9.58-5.78.5.5 0 1 1 .84.56A13.32 13.32 0 0 1 6.5 10z"/><path fill="#172f35" d="M16.75,7a.5.5,0,0,1-.5-.46l-.25-3a.5.5,0,0,1,1-.08l.25,3a.5.5,0,0,1-.46.54Z"/><path fill="#172f35" d="M13.55,4.53a.5.5,0,0,1-.09-1L16.41,3a.5.5,0,0,1,.18,1l-2.95.53Z"/></g></svg>