<svg xmlns="http://www.w3.org/2000/svg" viewBox="0 0 64 64"><path fill="#222" d="M39.05 53.91H13.89a8.51 8.51 0 0 1-8.5-8.5V13.03a8.51 8.51 0 0 1 8.5-8.5h30a8.51 8.51 0 0 1 8.5 8.5v26.61a1.5 1.5 0 0 1-3 0V13.03a5.507 5.507 0 0 0-5.5-5.5h-30a5.507 5.507 0 0 0-5.5 5.5v32.38a5.507 5.507 0 0 0 5.5 5.5h25.16a1.5 1.5 0 1 1 0 3Z"/><path fill="#222" d="M41.36 17.526H16.42a1.5 1.5 0 0 1 0-3h24.94a1.5 1.5 0 1 1 0 3zm0 8.796H16.42a1.5 1.5 0 0 1 0-3h24.94a1.5 1.5 0 0 1 0 3zm0 8.795H16.42a1.5 1.5 0 0 1 0-3h24.94a1.5 1.5 0 0 1 0 3zm-6.988 8.795H16.421a1.5 1.5 0 1 1 0-3h17.951a1.5 1.5 0 0 1 0 3zm13.29 15.559A10.948 10.948 0 1 1 58.61 48.523 10.96 10.96 0 0 1 47.662 59.47zm0-18.896a7.948 7.948 0 1 0 7.947 7.947 7.957 7.957 0 0 0-7.947-7.947z"/><path fill="#222" d="M51.481 50.023h-3.819a1.5 1.5 0 0 1-1.5-1.5v-4.39a1.5 1.5 0 0 1 3 0v2.89h2.32a1.5 1.5 0 0 1 0 3Z"/></svg>