<svg xmlns="http://www.w3.org/2000/svg" width="32" height="32" viewBox="0 0 8.467 8.467"><path d="M3.044.794c-.637 0-1.172.457-1.296 1.058h-.425c-.288 0-.53.24-.53.53v4.762c0 .288.242.529.53.529h5.82c.29 0 .53-.24.53-.53V3.706a.265.265 0 1 0-.53 0v3.439h-5.82V2.38h.425A1.327 1.327 0 0 0 3.044 3.44c.727 0 1.321-.595 1.321-1.322 0-.727-.594-1.324-1.321-1.324zM6.77.795a.529.529 0 0 0-.375.153L3.778 3.566a.265.265 0 0 0-.077.188v.748a.265.265 0 0 0 .264.263h.748A.265.265 0 0 0 4.9 4.69l2.618-2.62a.534.534 0 0 0 0-.748L7.145.948a.528.528 0 0 0-.374-.153Zm0 .526.374.375-2.542 2.54H4.23v-.373Zm-3.727.002a.79.79 0 0 1 .792.795.788.788 0 0 1-.792.792.79.79 0 0 1-.795-.792c0-.442.353-.795.795-.795zm0 .392a.132.132 0 0 0-.016 0 .132.132 0 0 0-.118.135v.135h-.134a.132.132 0 0 0-.014 0 .132.132 0 0 0 .014.264h.134v.136a.133.133 0 1 0 .266 0V2.25h.135a.132.132 0 1 0 0-.264h-.135V1.85a.132.132 0 0 0-.132-.135ZM1.827 5.027a.265.265 0 0 0 .025.53H3.97a.265.265 0 1 0 0-.53H1.852a.265.265 0 0 0-.025 0zm0 1.058a.265.265 0 0 0 .025.53h3.704a.265.265 0 1 0 0-.53H1.852a.265.265 0 0 0-.025 0z" color="#000" font-family="sans-serif" font-weight="400" overflow="visible" style="line-height:normal;font-variant-ligatures:normal;font-variant-position:normal;font-variant-caps:normal;font-variant-numeric:normal;font-variant-alternates:normal;font-feature-settings:normal;text-indent:0;text-align:start;text-decoration-line:none;text-decoration-style:solid;text-decoration-color:#000;text-transform:none;text-orientation:mixed;shape-padding:0;isolation:auto;mix-blend-mode:normal"/></svg>