<svg xmlns="http://www.w3.org/2000/svg" width="24" height="24" xml:space="preserve"><path d="M12.6 15.6h-1.4c-2 0-4.6-3.2-4.6-5.2V4.5c0-2 1.6-3.7 3.7-3.7h3.3c2 0 3.7 1.6 3.7 3.7v5.9c-.1 2-2.7 5.2-4.7 5.2zM10.2 1.8C8.7 1.8 7.5 3 7.5 4.5v5.9c0 1.5 2.1 4.3 3.7 4.3h1.4c1.5 0 3.7-2.8 3.7-4.3V4.5c0-1.5-1.2-2.7-2.7-2.7h-3.4z"/><path d="M7.2 19.2c-.3 0-.5-.2-.5-.5s.2-.5.5-.5c.8 0 1.5-.7 1.5-1.5v-2.5c0-.3.2-.5.5-.5s.5.2.5.5v2.5c-.1 1.4-1.2 2.5-2.5 2.5zM16.6 19.2c-1.4 0-2.5-1.1-2.5-2.5v-2.5c0-.3.2-.5.5-.5s.5.2.5.5v2.5c0 .8.7 1.5 1.5 1.5.3 0 .5.2.5.5s-.2.5-.5.5z"/><path d="M22.5 23.6H1.3c-.3 0-.5-.2-.5-.5v-4.5c0-.3.2-.5.5-.5H7c.3 0 .5.2.5.5s-.2.5-.5.5H1.8v3.5H22v-3.5h-5.3c-.3 0-.5-.2-.5-.5s.2-.5.5-.5h5.8c.3 0 .5.2.5.5v4.5c0 .3-.2.5-.5.5zM13.8 7.5c-.8 0-1.7 0-2.5-.1-2.9-.3-4.4-.9-4.7-1.8-.1-.2.1-.5.3-.6.3-.1.5.1.6.3.1.3 1.2.8 3.8 1.1 2.2.2 4.2.1 4.8-.1.2-.1.5.1.6.3.1.3-.1.5-.3.6-.5.2-1.5.3-2.6.3zM10.2 9.4h-.6c-.3 0-.5-.2-.5-.5s.2-.5.5-.5h.6c.3 0 .5.2.5.5s-.2.5-.5.5zM14.2 9.4h-.6c-.3 0-.5-.2-.5-.5s.2-.5.5-.5h.6c.3 0 .5.2.5.5-.1.3-.3.5-.5.5zM14.6 17.2H9.2c-.3 0-.5-.2-.5-.5s.2-.5.5-.5h5.5c.3 0 .5.2.5.5-.1.2-.3.5-.6.5z"/><path d="M17.6 19.2h-12c-.3 0-.5-.2-.5-.5s.2-.5.5-.5h12c.3 0 .5.2.5.5s-.3.5-.5.5zM22.5 21.4H1.3c-.3 0-.5-.2-.5-.5s.2-.5.5-.5h21.2c.3 0 .5.2.5.5s-.2.5-.5.5z"/></svg>