<svg xmlns="http://www.w3.org/2000/svg" viewBox="0 0 100 100"><defs><clipPath id="clip-pie_chart"><path d="M0 0h100v100H0z"/></clipPath><style>.cls-2,.cls-5{fill:#ffb600;stroke:#2e3d49;stroke-linecap:round;stroke-linejoin:round}.cls-5{fill:#fff}</style></defs><g id="pie_chart" clip-path="url(#clip-pie_chart)" style="clip-path:url(#clip-pie_chart)"><g id="icon_pie_chart" transform="translate(49.868 49.868)"><g id="Group_23" data-name="Group 23" transform="translate(-47.868 -47.868)"><path id="Path_61" data-name="Path 61" class="cls-2" d="M40.727 63.894 34.48 69.56a24.086 24.086 0 0 0 17.54 7.068c5.989 0 14.244-5.323 18.246-9.992a18.41 18.41 0 0 1-12.2 4.465c-10.371-.001-17.339-7.207-17.339-7.207z" fill="#ffb600" stroke="#2e3d49" stroke-linecap="round" stroke-linejoin="round"/><path id="Path_62" data-name="Path 62" class="cls-2" d="M76.568 52.24c0-12.414-9.331-25.91-23.187-29.073l1.682 24.708-14.336 16.019s6.968 7.206 17.34 7.206a18.41 18.41 0 0 0 12.2-4.465 18.8 18.8 0 0 0 6.301-14.395z" fill="#ffb600" stroke="#2e3d49" stroke-linecap="round" stroke-linejoin="round"/><path id="Path_63" data-name="Path 63" class="cls-2" d="m47.094 28.924 1.682 24.238 6.287-5.287-1.682-24.708z" fill="#ffb600" stroke="#2e3d49" stroke-linecap="round" stroke-linejoin="round"/><path id="Path_64" data-name="Path 64" class="cls-2" d="M40.727 63.894 34.48 69.56l14.3-16.4 6.287-5.287z" fill="#ffb600" stroke="#2e3d49" stroke-linecap="round" stroke-linejoin="round"/><path id="Path_65" data-name="Path 65" d="m32.077 21.715-6.234 5.847 14.242 15.627 6.348-5.889z" fill="#00a3d1" style="fill:#00a3d1"/><path id="Path_66" data-name="Path 66" d="M45.022 17.871 46.433 37.3 32.077 21.715a18.532 18.532 0 0 1 12.945-3.844z" fill="#02b3e4" style="fill:#02b3e4"/><path id="Path_67" data-name="Path 67" class="cls-5" d="M24.028 43.871c0-10.364 3.831-14.531 4.593-15.258l-5.4 4.98-.007.006c-2.577 2.283-5.314 6.637-5.314 14.837 0 10.612 7.929 18.686 7.929 18.686l6.127-6.272c-.977-1.02-7.928-8.576-7.928-16.979z" stroke="#2e3d49" stroke-linecap="round" stroke-linejoin="round" fill="#fff"/><path id="Path_68" data-name="Path 68" class="cls-5" d="M45.171 46.234 28.753 28.493l-.034.029c-.422.372-4.691 4.408-4.691 15.348 0 8.4 6.951 15.959 7.929 16.979z" stroke="#2e3d49" stroke-linecap="round" stroke-linejoin="round" fill="#fff"/></g></g></g></svg>