<svg xmlns="http://www.w3.org/2000/svg" fill-rule="evenodd" stroke-linejoin="round" stroke-miterlimit="2" clip-rule="evenodd" viewBox="0 0 32 32"><rect width="32" height="32" y=".003" fill="none"/><path d="M14.98,15.003c0.013,-0.001 0.026,-0.001 0.038,-0l1.964,-0c0.012,-0.001 0.025,-0.001 0.038,-0l2.616,-0c4.191,-0 7.827,2.892 8.769,6.976c0.357,1.544 0.718,3.11 1.004,4.349c0.206,0.891 -0.006,1.827 -0.575,2.542c-0.57,0.716 -1.434,1.133 -2.348,1.133c-4.97,-0 -16.002,-0 -20.972,-0c-0.914,-0 -1.778,-0.417 -2.348,-1.133c-0.569,-0.715 -0.781,-1.651 -0.575,-2.542c0.286,-1.239 0.647,-2.805 1.004,-4.349c0.942,-4.084 4.578,-6.976 8.769,-6.976l2.616,-0Zm-1.261,2l-1.355,-0c-3.259,-0 -6.088,2.25 -6.821,5.426c-0.356,1.543 -0.717,3.109 -1.003,4.349c-0.069,0.297 0.002,0.609 0.192,0.847c0.189,0.239 0.477,0.378 0.782,0.378c4.97,-0 16.002,-0 20.972,-0c0.305,-0 0.593,-0.139 0.782,-0.378c0.19,-0.238 0.261,-0.55 0.192,-0.847c-0.286,-1.24 -0.647,-2.806 -1.003,-4.349c-0.733,-3.176 -3.562,-5.426 -6.821,-5.426l-1.355,-0l1.689,6.757c0.103,0.41 -0.064,0.84 -0.415,1.075l-3,2c-0.336,0.224 -0.774,0.224 -1.11,-0l-3,-2c-0.351,-0.235 -0.518,-0.665 -0.415,-1.075l1.689,-6.757Zm2.062,-0l-1.64,6.559l1.859,1.239l1.859,-1.239l-1.64,-6.559l-0.438,-0Zm0.219,-15c-3.311,-0 -6,2.688 -6,6c0,3.311 2.689,6 6,6c3.311,-0 6,-2.689 6,-6c0,-3.312 -2.689,-6 -6,-6Zm-0,2c2.208,-0 4,1.792 4,4c0,2.207 -1.792,4 -4,4c-2.208,-0 -4,-1.793 -4,-4c0,-2.208 1.792,-4 4,-4Z"/></svg>