<?xml version="1.0" encoding="UTF-8"?><!DOCTYPE svg PUBLIC "-//W3C//DTD SVG 1.1//EN" "http://www.w3.org/Graphics/SVG/1.1/DTD/svg11.dtd"><svg xmlns="http://www.w3.org/2000/svg" xmlns:xlink="http://www.w3.org/1999/xlink" xml:space="preserve" width="6.82666in" height="6.82666in" viewBox="0 0 6.82666 6.82666" shape-rendering="geometricPrecision" text-rendering="geometricPrecision" image-rendering="optimizeQuality" fill-rule="evenodd" clip-rule="evenodd"><defs><style type="text/css"><![CDATA[
    .fil0 {fill:none}
    .fil1 {fill:#212121;fill-rule:nonzero}
   ]]></style></defs><g id="Layer_x0020_1"><path class="fil0" fill="none" d="M0 0h6.827v6.827H0z"/><path class="fil0" fill="none" d="M.853.853h5.12v5.12H.853z"/><path class="fil0" fill="none" d="M.853.853h5.12v5.12H.853z"/><path class="fil1" d="M2.674 3.09a1.077 1.077 0 0 1-.078.003.993.993 0 0 1-.996-.995c0-.275.112-.524.292-.704a.993.993 0 0 1 1.598.267l-.191.093a.788.788 0 0 0-.703-.44.78.78 0 0 0-.783.784.78.78 0 0 0 .845.78l.016.212z" fill="#212121" fill-rule="nonzero"/><path class="fil1" d="M2.823 3.453a1.08 1.08 0 0 1-1.017-.267c-.164.103-.301.24-.407.402a1.572 1.572 0 0 0-.23.622l-.003.019-.21-.033.002-.017c.04-.264.13-.503.262-.706.134-.205.31-.374.522-.497h.001l.028-.016.073-.042.057.06.022.024a.876.876 0 0 0 .74.264.863.863 0 0 0 .107-.02l.053.207z" fill="#212121" fill-rule="nonzero"/><path class="fil1" d="M4.09 4.221a1.23 1.23 0 0 1-.872-.362 1.23 1.23 0 0 1 0-1.745 1.23 1.23 0 0 1 1.745 0 1.23 1.23 0 0 1 0 1.745 1.23 1.23 0 0 1-.873.362zM3.37 3.71a1.018 1.018 0 0 0 1.443 0 1.02 1.02 0 0 0-.722-1.744 1.018 1.018 0 0 0-1.02 1.022c0 .281.114.537.299.722z" fill="#212121" fill-rule="nonzero"/><path class="fil1" d="M3.184 5.86h2.683a1.906 1.906 0 0 0-.195-.897 1.66 1.66 0 0 0-.637-.662 1.35 1.35 0 0 1-.945.39 1.339 1.339 0 0 1-.945-.39 1.98 1.98 0 0 0-.327.249l-.147-.153a1.982 1.982 0 0 1 .404-.3v-.001l.036-.02.073-.042.057.06.028.03a1.14 1.14 0 0 0 .821.353 1.126 1.126 0 0 0 .821-.353h.001l.03-.03.057-.06.072.042.035.02c.352.203.598.465.755.77.17.327.234.702.216 1.106l-.005.102H3.184V5.86z" fill="#212121" fill-rule="nonzero"/><path class="fil1" d="M1.931 4.196l-.515.492h.272l.014.091a1.192 1.192 0 0 0 .718.952 1.262 1.262 0 0 1-.123-.204 1.66 1.66 0 0 1-.149-.732v-.107h.298l-.515-.492zm-.854.521l.781-.745.073-.07.074.07.78.745-.073.184h-.348c.01.205.051.381.124.534.085.176.216.322.395.444l-.08.193c-.323-.062-.648-.193-.897-.43a1.38 1.38 0 0 1-.399-.74h-.356l-.074-.185z" fill="#212121" fill-rule="nonzero"/></g><metadata><rdf:RDF xmlns:rdf="http://www.w3.org/1999/02/22-rdf-syntax-ns#" xmlns:rdfs="http://www.w3.org/2000/01/rdf-schema#" xmlns:dc="http://purl.org/dc/elements/1.1/"><rdf:Description about="https://iconscout.com/legal#licenses" dc:title="referrals,affiliation,user,marketing" dc:description="referrals,affiliation,user,marketing" dc:publisher="Iconscout" dc:date="2017-08-19" dc:format="image/svg+xml" dc:language="en"><dc:creator><rdf:Bag><rdf:li>Icon Bunny</rdf:li></rdf:Bag></dc:creator></rdf:Description></rdf:RDF></metadata></svg>