<svg xmlns="http://www.w3.org/2000/svg" data-name="Layer 1" viewBox="0 0 512 512"><g data-name="&lt;Group&gt;"><path d="M459.11,78h-15c-36.66,0-68.145-4.958-96.256-15.614-27.805-10.539-52.624-26.469-75.875-48.927L261.558,3.449a8,8,0,0,0-11.116.028l-10.421,9.857C194.2,57.594,139.5,78,67.89,78h-15C48.472,78,45,82.027,45,86.445v15c0,12.079-.3,24.556-.547,37.769-1.219,63.86-2.63,136.24,22.069,203.253C95.856,422.055,155.372,476.4,248.5,508.606l4.9,1.7a7.987,7.987,0,0,0,5.223,0l4.9-1.7c93.124-32.206,152.652-86.551,181.986-166.139,24.7-67.013,23.262-139.393,22.043-203.256C467.3,126,467,113.524,467,101.445v-15C467,82.027,463.528,78,459.11,78ZM430.491,336.934c-27.57,74.8-83.9,126.011-172.2,156.551l-2.288.791-2.287-.791c-88.306-30.54-144.634-81.748-172.2-156.551-23.658-64.186-22.251-134.967-21.06-197.416.256-13.289.551-25.841.551-38.073V94h6.89c76.023,0,134.252-21.819,183.247-69.145L256,20.27l4.863,4.752c24.844,24,51.445,40.973,81.319,52.3C372.137,88.675,405.479,94,444.11,94H451v7.445c0,12.232.3,24.784.551,38.074C452.742,201.967,454.149,272.748,430.491,336.934Z" data-name="&lt;Compound Path&gt;"/><path d="M437.6,139.193c-.154-8.028-.3-15.612-.389-23.117a8,8,0,0,0-7.7-7.9c-68.2-2.531-121.653-22.766-168.225-63.681a8,8,0,0,0-10.56,0C204.148,85.413,150.694,105.648,82.5,108.179a8,8,0,0,0-7.7,7.9c-.092,7.505-.235,15.089-.389,23.117l-.01.593C73.224,201,71.9,270.379,94.644,332.092c25.52,69.24,77.414,117.127,158.644,146.4a8.011,8.011,0,0,0,5.424,0c81.23-29.27,133.124-77.157,158.643-146.4C440.1,270.379,438.776,201,437.606,139.786ZM402.344,326.559C378.839,390.329,330.958,434.8,256,462.447,181.042,434.8,133.161,390.329,109.656,326.559c-21.7-58.887-20.409-126.667-19.265-186.469l.01-.592c.1-5.389.2-10.578.284-15.686,32.987-1.869,62.43-7.85,89.79-18.221A258.977,258.977,0,0,0,256,61.049a258.977,258.977,0,0,0,75.525,44.542c27.36,10.371,56.8,16.352,89.79,18.221.082,5.108.181,10.3.284,15.686l.01.593C422.753,199.892,424.048,267.672,402.344,326.559Z" data-name="&lt;Compound Path&gt;"/><path d="M321,236.682V204.359a61.135,61.135,0,0,0-19.578-44.815,64.513,64.513,0,0,0-45.494-17.691c-35.782.03-64.928,28.059-64.928,62.505v32.324a27.315,27.315,0,0,0-22,26.97v78.887C169,357.766,181.4,370,197.2,370H314.8c15.8,0,28.2-12.234,28.2-27.461V263.651A27.312,27.312,0,0,0,321,236.682ZM207,204.358C207,178.715,229.013,158,256,158h.117a49.551,49.551,0,0,1,34.33,13.261A45.122,45.122,0,0,1,305,204.359V236H207ZM327,342.539c0,6.4-5.225,11.461-12.2,11.461H197.2c-6.973,0-12.2-5.057-12.2-11.461V263.652c0-6.4,5.225-11.652,12.2-11.652H314.8c6.973,0,12.2,5.247,12.2,11.651Z" data-name="&lt;Compound Path&gt;"/><path d="M256,284.781c-11.526,0-20.9,9.088-20.9,20.259A20.3,20.3,0,0,0,248,323.751v10.742a8,8,0,0,0,16,0V323.751a20.3,20.3,0,0,0,12.9-18.711C276.9,293.869,267.525,284.781,256,284.781Zm0,24.518c-2.7,0-4.9-1.91-4.9-4.259s2.2-4.259,4.9-4.259,4.9,1.91,4.9,4.259S258.7,309.3,256,309.3Z" data-name="&lt;Compound Path&gt;"/></g></svg>